<?xml version="1.0" encoding="UTF-8"?>
<svg xmlns="http://www.w3.org/2000/svg" xmlns:xlink="http://www.w3.org/1999/xlink" width="1080" height="1920" viewBox="0 0 1080 1920">
<defs>
<g>
<g id="glyph-0-0">
</g>
<g id="glyph-0-1">
<path d="M 3.640625 0.125 C 2.640625 0.125 1.867188 -0.09375 1.328125 -0.53125 C 0.785156 -0.976562 0.515625 -1.613281 0.515625 -2.4375 C 0.515625 -2.925781 0.613281 -3.320312 0.8125 -3.625 C 1.019531 -3.925781 1.285156 -4.175781 1.609375 -4.375 C 1.941406 -4.570312 2.289062 -4.742188 2.65625 -4.890625 C 2.332031 -5.265625 2.097656 -5.601562 1.953125 -5.90625 C 1.804688 -6.21875 1.734375 -6.5625 1.734375 -6.9375 C 1.734375 -7.53125 1.929688 -7.992188 2.328125 -8.328125 C 2.734375 -8.671875 3.351562 -8.84375 4.1875 -8.84375 C 4.738281 -8.84375 5.1875 -8.765625 5.53125 -8.609375 C 5.875 -8.453125 6.125 -8.242188 6.28125 -7.984375 C 6.445312 -7.722656 6.53125 -7.429688 6.53125 -7.109375 C 6.53125 -6.609375 6.378906 -6.195312 6.078125 -5.875 C 5.773438 -5.5625 5.3125 -5.257812 4.6875 -4.96875 L 6.5 -3.03125 C 6.5625 -3.257812 6.609375 -3.519531 6.640625 -3.8125 C 6.671875 -4.113281 6.6875 -4.398438 6.6875 -4.671875 L 6.6875 -5.203125 L 9.28125 -5.203125 L 9.28125 -4.5625 L 9.09375 -4.5625 C 8.914062 -4.5625 8.738281 -4.546875 8.5625 -4.515625 C 8.394531 -4.492188 8.242188 -4.425781 8.109375 -4.3125 C 7.972656 -4.207031 7.875 -4.03125 7.8125 -3.78125 C 7.738281 -3.550781 7.65625 -3.304688 7.5625 -3.046875 C 7.476562 -2.796875 7.378906 -2.535156 7.265625 -2.265625 L 8.484375 -1 C 8.609375 -0.851562 8.757812 -0.753906 8.9375 -0.703125 C 9.113281 -0.660156 9.304688 -0.640625 9.515625 -0.640625 L 9.625 -0.640625 L 9.625 0 L 7.203125 0 L 6.296875 -0.953125 C 6.015625 -0.660156 5.65625 -0.40625 5.21875 -0.1875 C 4.78125 0.0195312 4.253906 0.125 3.640625 0.125 Z M 4.171875 -5.515625 C 4.503906 -5.710938 4.742188 -5.929688 4.890625 -6.171875 C 5.046875 -6.410156 5.125 -6.71875 5.125 -7.09375 C 5.125 -7.40625 5.050781 -7.648438 4.90625 -7.828125 C 4.757812 -8.015625 4.539062 -8.109375 4.25 -8.109375 C 3.96875 -8.109375 3.75 -8.019531 3.59375 -7.84375 C 3.4375 -7.664062 3.359375 -7.414062 3.359375 -7.09375 C 3.359375 -6.8125 3.425781 -6.550781 3.5625 -6.3125 C 3.707031 -6.070312 3.910156 -5.804688 4.171875 -5.515625 Z M 4 -0.71875 C 4.382812 -0.71875 4.722656 -0.796875 5.015625 -0.953125 C 5.316406 -1.117188 5.5625 -1.316406 5.75 -1.546875 L 3.1875 -4.28125 C 2.90625 -4.082031 2.695312 -3.832031 2.5625 -3.53125 C 2.4375 -3.238281 2.375 -2.882812 2.375 -2.46875 C 2.375 -1.914062 2.519531 -1.484375 2.8125 -1.171875 C 3.113281 -0.867188 3.507812 -0.71875 4 -0.71875 Z "/>
</g>
</g>
</defs>
<g fill="rgb(100%, 100%, 0%)" fill-opacity="1">
<use xlink:href="#glyph-0-0" x="30" y="33.066406"/>
<use xlink:href="#glyph-0-1" x="33" y="33.066406"/>
<use xlink:href="#glyph-0-0" x="43" y="33.066406"/>
</g>
</svg>
