<?xml version="1.0" encoding="UTF-8"?>
<svg xmlns="http://www.w3.org/2000/svg" xmlns:xlink="http://www.w3.org/1999/xlink" width="1080" height="1920" viewBox="0 0 1080 1920">
<defs>
<g>
<g id="glyph-0-0">
<path d="M 0.3125 0 L 0.3125 -0.34375 L 0.421875 -0.34375 C 0.609375 -0.34375 0.769531 -0.375 0.90625 -0.4375 C 1.039062 -0.507812 1.109375 -0.664062 1.109375 -0.90625 L 1.109375 -5.03125 C 1.109375 -5.269531 1.039062 -5.421875 0.90625 -5.484375 C 0.769531 -5.554688 0.609375 -5.59375 0.421875 -5.59375 L 0.3125 -5.59375 L 0.3125 -5.953125 L 2.21875 -5.953125 L 3.9375 -1.1875 L 5.640625 -5.953125 L 7.5 -5.953125 L 7.5 -5.59375 L 7.390625 -5.59375 C 7.203125 -5.59375 7.039062 -5.554688 6.90625 -5.484375 C 6.769531 -5.421875 6.703125 -5.257812 6.703125 -5 L 6.703125 -0.953125 C 6.703125 -0.691406 6.769531 -0.523438 6.90625 -0.453125 C 7.039062 -0.378906 7.203125 -0.34375 7.390625 -0.34375 L 7.5 -0.34375 L 7.5 0 L 5.28125 0 L 5.28125 -0.34375 L 5.3125 -0.34375 C 5.488281 -0.34375 5.628906 -0.375 5.734375 -0.4375 C 5.835938 -0.5 5.894531 -0.644531 5.90625 -0.875 L 5.90625 -5.328125 L 4 0 L 3.546875 0 L 1.609375 -5.3125 L 1.609375 -0.953125 C 1.609375 -0.691406 1.660156 -0.523438 1.765625 -0.453125 C 1.878906 -0.378906 2.03125 -0.34375 2.21875 -0.34375 L 2.234375 -0.34375 L 2.234375 0 Z "/>
</g>
<g id="glyph-0-1">
<path d="M 1.34375 -5.296875 C 1.207031 -5.296875 1.09375 -5.332031 1 -5.40625 C 0.90625 -5.488281 0.859375 -5.625 0.859375 -5.8125 C 0.859375 -6.007812 0.90625 -6.144531 1 -6.21875 C 1.09375 -6.289062 1.207031 -6.328125 1.34375 -6.328125 C 1.46875 -6.328125 1.578125 -6.289062 1.671875 -6.21875 C 1.765625 -6.144531 1.8125 -6.007812 1.8125 -5.8125 C 1.8125 -5.625 1.765625 -5.488281 1.671875 -5.40625 C 1.578125 -5.332031 1.46875 -5.296875 1.34375 -5.296875 Z M 0.1875 0 L 0.1875 -0.34375 L 0.296875 -0.34375 C 0.484375 -0.34375 0.644531 -0.375 0.78125 -0.4375 C 0.914062 -0.507812 0.984375 -0.664062 0.984375 -0.90625 L 0.984375 -3.546875 C 0.984375 -3.796875 0.914062 -3.953125 0.78125 -4.015625 C 0.644531 -4.078125 0.484375 -4.109375 0.296875 -4.109375 L 0.28125 -4.109375 L 0.28125 -4.46875 L 1.765625 -4.46875 L 1.765625 -0.953125 C 1.765625 -0.691406 1.832031 -0.523438 1.96875 -0.453125 C 2.101562 -0.378906 2.265625 -0.34375 2.453125 -0.34375 L 2.5625 -0.34375 L 2.5625 0 Z "/>
</g>
<g id="glyph-0-2">
<path d="M 0.234375 0 L 0.234375 -0.34375 L 0.296875 -0.34375 C 0.484375 -0.34375 0.644531 -0.378906 0.78125 -0.453125 C 0.914062 -0.523438 0.984375 -0.691406 0.984375 -0.953125 L 0.984375 -3.546875 C 0.984375 -3.796875 0.914062 -3.953125 0.78125 -4.015625 C 0.65625 -4.078125 0.5 -4.109375 0.3125 -4.109375 L 0.28125 -4.109375 L 0.28125 -4.46875 L 1.625 -4.46875 L 1.734375 -3.796875 L 1.78125 -3.796875 C 1.945312 -4.097656 2.132812 -4.296875 2.34375 -4.390625 C 2.5625 -4.492188 2.804688 -4.546875 3.078125 -4.546875 C 3.515625 -4.546875 3.851562 -4.414062 4.09375 -4.15625 C 4.34375 -3.894531 4.46875 -3.484375 4.46875 -2.921875 L 4.46875 -0.953125 C 4.46875 -0.691406 4.523438 -0.523438 4.640625 -0.453125 C 4.753906 -0.378906 4.90625 -0.34375 5.09375 -0.34375 L 5.140625 -0.34375 L 5.140625 0 L 3.6875 0 L 3.6875 -2.875 C 3.6875 -3.238281 3.617188 -3.519531 3.484375 -3.71875 C 3.347656 -3.914062 3.109375 -4.015625 2.765625 -4.015625 C 2.523438 -4.015625 2.328125 -3.953125 2.171875 -3.828125 C 2.023438 -3.703125 1.921875 -3.535156 1.859375 -3.328125 C 1.796875 -3.117188 1.765625 -2.898438 1.765625 -2.671875 L 1.765625 -0.90625 C 1.765625 -0.664062 1.828125 -0.507812 1.953125 -0.4375 C 2.085938 -0.375 2.25 -0.34375 2.4375 -0.34375 L 2.46875 -0.34375 L 2.46875 0 Z "/>
</g>
<g id="glyph-0-3">
<path d="M 0.234375 0 L 0.234375 -0.34375 L 0.34375 -0.34375 C 0.53125 -0.34375 0.679688 -0.378906 0.796875 -0.453125 C 0.921875 -0.523438 0.984375 -0.691406 0.984375 -0.953125 L 0.984375 -3.546875 C 0.984375 -3.796875 0.921875 -3.953125 0.796875 -4.015625 C 0.671875 -4.078125 0.519531 -4.109375 0.34375 -4.109375 L 0.3125 -4.109375 L 0.3125 -4.46875 L 1.625 -4.46875 L 1.734375 -3.796875 L 1.78125 -3.796875 C 1.945312 -4.097656 2.128906 -4.296875 2.328125 -4.390625 C 2.535156 -4.492188 2.769531 -4.546875 3.03125 -4.546875 C 3.300781 -4.546875 3.539062 -4.488281 3.75 -4.375 C 3.96875 -4.257812 4.128906 -4.066406 4.234375 -3.796875 L 4.3125 -3.796875 C 4.476562 -4.097656 4.671875 -4.296875 4.890625 -4.390625 C 5.117188 -4.492188 5.359375 -4.546875 5.609375 -4.546875 C 6.035156 -4.546875 6.367188 -4.414062 6.609375 -4.15625 C 6.847656 -3.894531 6.96875 -3.484375 6.96875 -2.921875 L 6.96875 -0.953125 C 6.96875 -0.691406 7.023438 -0.523438 7.140625 -0.453125 C 7.265625 -0.378906 7.421875 -0.34375 7.609375 -0.34375 L 7.640625 -0.34375 L 7.640625 0 L 6.1875 0 L 6.1875 -2.875 C 6.1875 -3.238281 6.117188 -3.519531 5.984375 -3.71875 C 5.859375 -3.914062 5.632812 -4.015625 5.3125 -4.015625 C 5.082031 -4.015625 4.898438 -3.957031 4.765625 -3.84375 C 4.628906 -3.726562 4.53125 -3.578125 4.46875 -3.390625 C 4.414062 -3.203125 4.390625 -2.992188 4.390625 -2.765625 L 4.390625 -0.953125 C 4.390625 -0.691406 4.445312 -0.523438 4.5625 -0.453125 C 4.6875 -0.378906 4.84375 -0.34375 5.03125 -0.34375 L 5.0625 -0.34375 L 5.0625 0 L 3.609375 0 L 3.609375 -2.875 C 3.609375 -3.238281 3.539062 -3.519531 3.40625 -3.71875 C 3.28125 -3.914062 3.054688 -4.015625 2.734375 -4.015625 C 2.492188 -4.015625 2.300781 -3.953125 2.15625 -3.828125 C 2.019531 -3.703125 1.921875 -3.535156 1.859375 -3.328125 C 1.796875 -3.117188 1.765625 -2.898438 1.765625 -2.671875 L 1.765625 -0.90625 C 1.765625 -0.664062 1.832031 -0.507812 1.96875 -0.4375 C 2.101562 -0.375 2.265625 -0.34375 2.453125 -0.34375 L 2.46875 -0.34375 L 2.46875 0 Z "/>
</g>
<g id="glyph-0-4">
<path d="M 2.28125 0.078125 C 1.832031 0.078125 1.488281 -0.046875 1.25 -0.296875 C 1.019531 -0.554688 0.90625 -0.972656 0.90625 -1.546875 L 0.90625 -3.546875 C 0.90625 -3.796875 0.832031 -3.953125 0.6875 -4.015625 C 0.550781 -4.078125 0.394531 -4.109375 0.21875 -4.109375 L 0.1875 -4.109375 L 0.1875 -4.46875 L 1.6875 -4.46875 L 1.6875 -1.59375 C 1.6875 -1.226562 1.742188 -0.945312 1.859375 -0.75 C 1.984375 -0.550781 2.21875 -0.453125 2.5625 -0.453125 C 2.925781 -0.453125 3.191406 -0.570312 3.359375 -0.8125 C 3.523438 -1.0625 3.609375 -1.390625 3.609375 -1.796875 L 3.609375 -3.515625 C 3.609375 -3.773438 3.539062 -3.9375 3.40625 -4 C 3.269531 -4.070312 3.109375 -4.109375 2.921875 -4.109375 L 2.890625 -4.109375 L 2.890625 -4.46875 L 4.390625 -4.46875 L 4.390625 -0.90625 C 4.390625 -0.664062 4.457031 -0.507812 4.59375 -0.4375 C 4.726562 -0.375 4.890625 -0.34375 5.078125 -0.34375 L 5.09375 -0.34375 L 5.09375 0 L 3.765625 0 L 3.671875 -0.671875 L 3.625 -0.671875 C 3.445312 -0.359375 3.242188 -0.15625 3.015625 -0.0625 C 2.796875 0.03125 2.550781 0.078125 2.28125 0.078125 Z "/>
</g>
</g>
</defs>
<g fill="rgb(36.078431%, 81.568627%, 70.196078%)" fill-opacity="1">
<use xlink:href="#glyph-0-0" x="30" y="28.908203"/>
<use xlink:href="#glyph-0-1" x="38" y="28.908203"/>
<use xlink:href="#glyph-0-2" x="41" y="28.908203"/>
<use xlink:href="#glyph-0-1" x="46" y="28.908203"/>
<use xlink:href="#glyph-0-3" x="49" y="28.908203"/>
<use xlink:href="#glyph-0-4" x="57" y="28.908203"/>
<use xlink:href="#glyph-0-3" x="62" y="28.908203"/>
</g>
</svg>
