<?xml version="1.0" encoding="UTF-8"?>
<svg xmlns="http://www.w3.org/2000/svg" xmlns:xlink="http://www.w3.org/1999/xlink" width="1080" height="1920" viewBox="0 0 1080 1920">
<defs>
<g>
<g id="glyph-0-0">
<path d="M 0.3125 0 L 0.3125 -0.34375 L 0.421875 -0.34375 C 0.609375 -0.34375 0.769531 -0.375 0.90625 -0.4375 C 1.039062 -0.507812 1.109375 -0.664062 1.109375 -0.90625 L 1.109375 -5.03125 C 1.109375 -5.269531 1.039062 -5.421875 0.90625 -5.484375 C 0.769531 -5.554688 0.609375 -5.59375 0.421875 -5.59375 L 0.3125 -5.59375 L 0.3125 -5.953125 L 2.734375 -5.953125 L 2.734375 -5.59375 L 2.625 -5.59375 C 2.4375 -5.59375 2.273438 -5.554688 2.140625 -5.484375 C 2.015625 -5.421875 1.953125 -5.257812 1.953125 -5 L 1.953125 -2.640625 L 3.671875 -4.625 C 3.847656 -4.832031 3.96875 -5 4.03125 -5.125 C 4.09375 -5.25 4.125 -5.347656 4.125 -5.421875 C 4.125 -5.492188 4.09375 -5.539062 4.03125 -5.5625 C 3.96875 -5.59375 3.863281 -5.609375 3.71875 -5.609375 L 3.71875 -5.953125 L 5.5625 -5.953125 L 5.5625 -5.609375 C 5.375 -5.609375 5.191406 -5.535156 5.015625 -5.390625 C 4.847656 -5.253906 4.660156 -5.066406 4.453125 -4.828125 L 3.234375 -3.46875 L 5 -1.015625 C 5.15625 -0.796875 5.304688 -0.628906 5.453125 -0.515625 C 5.609375 -0.398438 5.757812 -0.34375 5.90625 -0.34375 L 5.921875 -0.34375 L 5.921875 0 L 5.84375 0 C 5.5625 0 5.328125 -0.0078125 5.140625 -0.03125 C 4.960938 -0.0507812 4.8125 -0.0859375 4.6875 -0.140625 C 4.570312 -0.203125 4.46875 -0.28125 4.375 -0.375 C 4.289062 -0.476562 4.195312 -0.601562 4.09375 -0.75 L 2.65625 -2.8125 L 1.953125 -2.109375 L 1.953125 -0.953125 C 1.953125 -0.691406 2.015625 -0.523438 2.140625 -0.453125 C 2.273438 -0.378906 2.4375 -0.34375 2.625 -0.34375 L 2.734375 -0.34375 L 2.734375 0 Z "/>
</g>
<g id="glyph-0-1">
</g>
<g id="glyph-0-2">
<path d="M 0.546875 -3.546875 L 0.546875 -4.046875 L 4.109375 -4.046875 L 4.109375 -3.546875 Z M 0.546875 -1.90625 L 0.546875 -2.40625 L 4.109375 -2.40625 L 4.109375 -1.90625 Z "/>
</g>
<g id="glyph-0-3">
<path d="M 1.796875 0 L 1.796875 -0.34375 L 2.03125 -0.34375 C 2.21875 -0.34375 2.375 -0.378906 2.5 -0.453125 C 2.632812 -0.523438 2.703125 -0.691406 2.703125 -0.953125 L 2.703125 -1.625 L 0.140625 -1.625 L 0.140625 -1.96875 L 2.71875 -5.953125 L 3.5 -5.953125 L 3.5 -2.09375 L 4.53125 -2.09375 L 4.53125 -1.625 L 3.5 -1.625 L 3.5 -0.953125 C 3.5 -0.691406 3.566406 -0.523438 3.703125 -0.453125 C 3.835938 -0.378906 4 -0.34375 4.1875 -0.34375 L 4.296875 -0.34375 L 4.296875 0 Z M 0.734375 -2.09375 L 2.703125 -2.09375 L 2.703125 -3.640625 C 2.703125 -3.796875 2.703125 -3.972656 2.703125 -4.171875 C 2.710938 -4.378906 2.722656 -4.585938 2.734375 -4.796875 C 2.742188 -5.003906 2.753906 -5.191406 2.765625 -5.359375 C 2.734375 -5.304688 2.6875 -5.222656 2.625 -5.109375 C 2.570312 -5.003906 2.503906 -4.882812 2.421875 -4.75 C 2.347656 -4.625 2.273438 -4.5 2.203125 -4.375 C 2.128906 -4.257812 2.066406 -4.160156 2.015625 -4.078125 Z "/>
</g>
</g>
</defs>
<g fill="rgb(36.078431%, 81.568627%, 70.196078%)" fill-opacity="1">
<use xlink:href="#glyph-0-0" x="30" y="28.908203"/>
<use xlink:href="#glyph-0-1" x="36" y="28.908203"/>
<use xlink:href="#glyph-0-2" x="38" y="28.908203"/>
<use xlink:href="#glyph-0-1" x="43" y="28.908203"/>
<use xlink:href="#glyph-0-3" x="45" y="28.908203"/>
</g>
</svg>
