<?xml version="1.0" encoding="UTF-8"?>
<svg xmlns="http://www.w3.org/2000/svg" xmlns:xlink="http://www.w3.org/1999/xlink" width="1080" height="1920" viewBox="0 0 1080 1920">
<defs>
<g>
<g id="glyph-0-0">
<path d="M 0.296875 0 L 0.296875 -0.5625 L 0.671875 -0.5625 C 0.847656 -0.5625 0.992188 -0.609375 1.109375 -0.703125 C 1.222656 -0.804688 1.28125 -0.96875 1.28125 -1.1875 L 1.28125 -6.359375 C 1.28125 -6.597656 1.210938 -6.757812 1.078125 -6.84375 C 0.953125 -6.9375 0.800781 -6.984375 0.625 -6.984375 L 0.296875 -6.984375 L 0.296875 -7.546875 L 3.828125 -7.546875 L 3.828125 -6.984375 L 3.53125 -6.984375 C 3.363281 -6.984375 3.222656 -6.9375 3.109375 -6.84375 C 3.003906 -6.757812 2.953125 -6.601562 2.953125 -6.375 L 2.953125 -4.25 L 5.703125 -4.25 L 5.703125 -6.34375 C 5.703125 -6.59375 5.644531 -6.757812 5.53125 -6.84375 C 5.414062 -6.9375 5.265625 -6.984375 5.078125 -6.984375 L 4.84375 -6.984375 L 4.84375 -7.546875 L 8.359375 -7.546875 L 8.359375 -6.984375 L 7.96875 -6.984375 C 7.800781 -6.984375 7.660156 -6.9375 7.546875 -6.84375 C 7.429688 -6.757812 7.375 -6.59375 7.375 -6.34375 L 7.375 -1.171875 C 7.375 -0.953125 7.429688 -0.796875 7.546875 -0.703125 C 7.660156 -0.609375 7.800781 -0.5625 7.96875 -0.5625 L 8.359375 -0.5625 L 8.359375 0 L 4.84375 0 L 4.84375 -0.5625 L 5.09375 -0.5625 C 5.269531 -0.5625 5.414062 -0.609375 5.53125 -0.703125 C 5.644531 -0.804688 5.703125 -0.976562 5.703125 -1.21875 L 5.703125 -3.609375 L 2.953125 -3.609375 L 2.953125 -1.1875 C 2.953125 -0.96875 3.003906 -0.804688 3.109375 -0.703125 C 3.222656 -0.609375 3.363281 -0.5625 3.53125 -0.5625 L 3.828125 -0.5625 L 3.828125 0 Z "/>
</g>
<g id="glyph-0-1">
<path d="M 3.21875 0.109375 C 2.375 0.109375 1.707031 -0.132812 1.21875 -0.625 C 0.738281 -1.113281 0.5 -1.859375 0.5 -2.859375 C 0.5 -3.847656 0.726562 -4.582031 1.1875 -5.0625 C 1.65625 -5.550781 2.34375 -5.796875 3.25 -5.796875 C 4.09375 -5.796875 4.757812 -5.550781 5.25 -5.0625 C 5.738281 -4.582031 5.984375 -3.847656 5.984375 -2.859375 C 5.984375 -1.859375 5.75 -1.113281 5.28125 -0.625 C 4.8125 -0.132812 4.125 0.109375 3.21875 0.109375 Z M 3.25 -0.5625 C 3.65625 -0.5625 3.9375 -0.753906 4.09375 -1.140625 C 4.257812 -1.535156 4.34375 -2.109375 4.34375 -2.859375 C 4.34375 -3.609375 4.257812 -4.171875 4.09375 -4.546875 C 3.925781 -4.929688 3.640625 -5.125 3.234375 -5.125 C 2.828125 -5.125 2.539062 -4.929688 2.375 -4.546875 C 2.21875 -4.171875 2.140625 -3.609375 2.140625 -2.859375 C 2.140625 -2.109375 2.21875 -1.535156 2.375 -1.140625 C 2.539062 -0.753906 2.832031 -0.5625 3.25 -0.5625 Z "/>
</g>
<g id="glyph-0-2">
<path d="M 0.75 -4.546875 C 0.675781 -4.765625 0.582031 -4.910156 0.46875 -4.984375 C 0.363281 -5.066406 0.210938 -5.109375 0.015625 -5.109375 L -0.03125 -5.109375 L -0.03125 -5.65625 L 3.078125 -5.65625 L 3.078125 -5.109375 L 2.953125 -5.109375 C 2.734375 -5.109375 2.570312 -5.078125 2.46875 -5.015625 C 2.363281 -4.953125 2.3125 -4.832031 2.3125 -4.65625 C 2.3125 -4.601562 2.316406 -4.53125 2.328125 -4.4375 C 2.347656 -4.351562 2.367188 -4.269531 2.390625 -4.1875 L 2.75 -2.828125 C 2.820312 -2.578125 2.890625 -2.316406 2.953125 -2.046875 C 3.015625 -1.785156 3.054688 -1.578125 3.078125 -1.421875 L 3.109375 -1.421875 C 3.140625 -1.585938 3.1875 -1.773438 3.25 -1.984375 C 3.3125 -2.203125 3.378906 -2.40625 3.453125 -2.59375 L 4.53125 -5.609375 L 5.21875 -5.609375 L 6.25 -2.5 C 6.300781 -2.320312 6.351562 -2.128906 6.40625 -1.921875 C 6.46875 -1.710938 6.503906 -1.539062 6.515625 -1.40625 L 6.5625 -1.40625 C 6.582031 -1.570312 6.613281 -1.742188 6.65625 -1.921875 C 6.707031 -2.097656 6.769531 -2.296875 6.84375 -2.515625 L 7.3125 -4.0625 C 7.332031 -4.144531 7.351562 -4.238281 7.375 -4.34375 C 7.394531 -4.445312 7.40625 -4.523438 7.40625 -4.578125 C 7.40625 -4.929688 7.171875 -5.109375 6.703125 -5.109375 L 6.640625 -5.109375 L 6.640625 -5.65625 L 9.046875 -5.65625 L 9.046875 -5.109375 L 8.921875 -5.109375 C 8.710938 -5.109375 8.550781 -5.050781 8.4375 -4.9375 C 8.332031 -4.832031 8.226562 -4.613281 8.125 -4.28125 L 6.765625 0 L 5.625 0 L 4.46875 -3.5 L 3.25 0 L 2.109375 0 Z "/>
</g>
<g id="glyph-0-3">
</g>
<g id="glyph-0-4">
<path d="M 0.296875 0 L 0.296875 -0.5625 L 0.734375 -0.5625 C 0.890625 -0.5625 1.019531 -0.59375 1.125 -0.65625 C 1.226562 -0.726562 1.28125 -0.90625 1.28125 -1.1875 L 1.28125 -6.34375 C 1.28125 -6.625 1.226562 -6.800781 1.125 -6.875 C 1.019531 -6.945312 0.890625 -6.984375 0.734375 -6.984375 L 0.296875 -6.984375 L 0.296875 -7.546875 L 3.9375 -7.546875 L 3.9375 -6.984375 L 3.5 -6.984375 C 3.34375 -6.984375 3.210938 -6.941406 3.109375 -6.859375 C 3.003906 -6.785156 2.953125 -6.597656 2.953125 -6.296875 L 2.953125 -3.828125 L 4.578125 -5.625 C 4.804688 -5.863281 4.960938 -6.0625 5.046875 -6.21875 C 5.140625 -6.382812 5.1875 -6.539062 5.1875 -6.6875 C 5.1875 -6.800781 5.140625 -6.878906 5.046875 -6.921875 C 4.960938 -6.972656 4.8125 -7 4.59375 -7 L 4.59375 -7.546875 L 7.453125 -7.546875 L 7.453125 -7 C 7.171875 -7 6.910156 -6.910156 6.671875 -6.734375 C 6.429688 -6.554688 6.1875 -6.332031 5.9375 -6.0625 L 4.546875 -4.53125 L 6.5 -1.421875 C 6.71875 -1.085938 6.914062 -0.859375 7.09375 -0.734375 C 7.269531 -0.617188 7.472656 -0.5625 7.703125 -0.5625 L 7.75 -0.5625 L 7.75 0 L 7.1875 0 C 6.644531 0 6.226562 -0.0351562 5.9375 -0.109375 C 5.644531 -0.179688 5.421875 -0.285156 5.265625 -0.421875 C 5.109375 -0.566406 4.96875 -0.75 4.84375 -0.96875 L 3.40625 -3.40625 L 2.953125 -3.03125 L 2.953125 -1.25 C 2.953125 -0.945312 3.003906 -0.753906 3.109375 -0.671875 C 3.210938 -0.597656 3.34375 -0.5625 3.5 -0.5625 L 3.9375 -0.5625 L 3.9375 0 Z "/>
</g>
<g id="glyph-0-5">
<path d="M 0.265625 -2.328125 L 0.265625 -3.4375 L 3.015625 -3.4375 L 3.015625 -2.328125 Z "/>
</g>
<g id="glyph-0-6">
<path d="M 0.296875 0 L 0.296875 -0.5625 L 0.5625 -0.5625 C 0.769531 -0.5625 0.941406 -0.601562 1.078125 -0.6875 C 1.210938 -0.78125 1.28125 -0.945312 1.28125 -1.1875 L 1.28125 -6.34375 C 1.28125 -6.59375 1.210938 -6.757812 1.078125 -6.84375 C 0.953125 -6.9375 0.8125 -6.984375 0.65625 -6.984375 L 0.296875 -6.984375 L 0.296875 -7.546875 L 3.34375 -7.546875 L 5.09375 -2.453125 L 6.765625 -7.546875 L 9.765625 -7.546875 L 9.765625 -6.984375 L 9.375 -6.984375 C 9.21875 -6.984375 9.078125 -6.9375 8.953125 -6.84375 C 8.835938 -6.757812 8.78125 -6.601562 8.78125 -6.375 L 8.78125 -1.171875 C 8.78125 -0.941406 8.835938 -0.78125 8.953125 -0.6875 C 9.078125 -0.601562 9.238281 -0.5625 9.4375 -0.5625 L 9.765625 -0.5625 L 9.765625 0 L 6.375 0 L 6.375 -0.5625 L 6.484375 -0.5625 C 6.710938 -0.5625 6.878906 -0.601562 6.984375 -0.6875 C 7.085938 -0.78125 7.144531 -0.957031 7.15625 -1.21875 L 7.15625 -6.5 L 5.015625 0 L 4.296875 0 L 2.0625 -6.5 L 2.0625 -1.25 C 2.0625 -0.945312 2.128906 -0.753906 2.265625 -0.671875 C 2.410156 -0.597656 2.609375 -0.5625 2.859375 -0.5625 L 2.921875 -0.5625 L 2.921875 0 Z "/>
</g>
<g id="glyph-0-7">
<path d="M 3.234375 0.109375 C 2.328125 0.109375 1.644531 -0.144531 1.1875 -0.65625 C 0.726562 -1.164062 0.5 -1.878906 0.5 -2.796875 C 0.5 -3.785156 0.722656 -4.53125 1.171875 -5.03125 C 1.628906 -5.539062 2.273438 -5.796875 3.109375 -5.796875 C 3.878906 -5.796875 4.484375 -5.582031 4.921875 -5.15625 C 5.367188 -4.726562 5.59375 -4.09375 5.59375 -3.25 L 5.59375 -2.71875 L 2.125 -2.71875 C 2.144531 -2.007812 2.273438 -1.492188 2.515625 -1.171875 C 2.765625 -0.847656 3.128906 -0.6875 3.609375 -0.6875 C 3.960938 -0.6875 4.253906 -0.769531 4.484375 -0.9375 C 4.722656 -1.113281 4.898438 -1.320312 5.015625 -1.5625 C 5.117188 -1.53125 5.203125 -1.472656 5.265625 -1.390625 C 5.335938 -1.316406 5.375 -1.21875 5.375 -1.09375 C 5.375 -0.914062 5.300781 -0.734375 5.15625 -0.546875 C 5.007812 -0.367188 4.78125 -0.210938 4.46875 -0.078125 C 4.15625 0.046875 3.742188 0.109375 3.234375 0.109375 Z M 3.96875 -3.390625 C 3.96875 -3.921875 3.90625 -4.335938 3.78125 -4.640625 C 3.65625 -4.953125 3.441406 -5.109375 3.140625 -5.109375 C 2.835938 -5.109375 2.597656 -4.960938 2.421875 -4.671875 C 2.253906 -4.378906 2.160156 -3.953125 2.140625 -3.390625 Z "/>
</g>
<g id="glyph-0-8">
<path d="M 2.140625 0.109375 C 1.671875 0.109375 1.273438 -0.03125 0.953125 -0.3125 C 0.628906 -0.59375 0.46875 -1.023438 0.46875 -1.609375 C 0.46875 -2.179688 0.660156 -2.601562 1.046875 -2.875 C 1.441406 -3.15625 2.039062 -3.3125 2.84375 -3.34375 L 3.703125 -3.375 L 3.703125 -3.953125 C 3.703125 -4.335938 3.648438 -4.632812 3.546875 -4.84375 C 3.453125 -5.050781 3.257812 -5.15625 2.96875 -5.15625 C 2.695312 -5.15625 2.507812 -5.050781 2.40625 -4.84375 C 2.300781 -4.644531 2.25 -4.367188 2.25 -4.015625 C 1.800781 -4.015625 1.46875 -4.066406 1.25 -4.171875 C 1.03125 -4.273438 0.921875 -4.457031 0.921875 -4.71875 C 0.921875 -4.976562 1.019531 -5.1875 1.21875 -5.34375 C 1.414062 -5.5 1.675781 -5.613281 2 -5.6875 C 2.332031 -5.757812 2.695312 -5.796875 3.09375 -5.796875 C 3.832031 -5.796875 4.382812 -5.660156 4.75 -5.390625 C 5.125 -5.128906 5.3125 -4.664062 5.3125 -4 L 5.3125 -1.3125 C 5.3125 -1.019531 5.359375 -0.820312 5.453125 -0.71875 C 5.546875 -0.613281 5.710938 -0.5625 5.953125 -0.5625 L 5.984375 -0.5625 L 5.984375 0 L 4.03125 0 L 3.796875 -0.734375 L 3.703125 -0.734375 C 3.546875 -0.535156 3.394531 -0.375 3.25 -0.25 C 3.113281 -0.132812 2.957031 -0.046875 2.78125 0.015625 C 2.613281 0.078125 2.398438 0.109375 2.140625 0.109375 Z M 2.71875 -0.671875 C 3.019531 -0.671875 3.257812 -0.789062 3.4375 -1.03125 C 3.613281 -1.269531 3.703125 -1.597656 3.703125 -2.015625 L 3.703125 -2.8125 L 3.234375 -2.78125 C 2.804688 -2.757812 2.507812 -2.644531 2.34375 -2.4375 C 2.1875 -2.238281 2.109375 -1.953125 2.109375 -1.578125 C 2.109375 -0.972656 2.3125 -0.671875 2.71875 -0.671875 Z "/>
</g>
<g id="glyph-0-9">
<path d="M 0.21875 0 L 0.21875 -0.5625 L 0.28125 -0.5625 C 0.507812 -0.5625 0.695312 -0.601562 0.84375 -0.6875 C 0.988281 -0.769531 1.0625 -0.96875 1.0625 -1.28125 L 1.0625 -4.421875 C 1.0625 -4.710938 0.992188 -4.898438 0.859375 -4.984375 C 0.722656 -5.066406 0.539062 -5.109375 0.3125 -5.109375 L 0.265625 -5.109375 L 0.265625 -5.65625 L 2.5 -5.65625 L 2.625 -4.90625 L 2.6875 -4.90625 C 2.84375 -5.195312 3.046875 -5.414062 3.296875 -5.5625 C 3.546875 -5.71875 3.878906 -5.796875 4.296875 -5.796875 C 4.859375 -5.796875 5.285156 -5.632812 5.578125 -5.3125 C 5.878906 -4.988281 6.03125 -4.472656 6.03125 -3.765625 L 6.03125 -1.3125 C 6.03125 -0.976562 6.085938 -0.769531 6.203125 -0.6875 C 6.316406 -0.601562 6.492188 -0.5625 6.734375 -0.5625 L 6.765625 -0.5625 L 6.765625 0 L 4.421875 0 L 4.421875 -3.46875 C 4.421875 -3.925781 4.363281 -4.28125 4.25 -4.53125 C 4.132812 -4.78125 3.921875 -4.90625 3.609375 -4.90625 C 3.367188 -4.90625 3.179688 -4.828125 3.046875 -4.671875 C 2.910156 -4.523438 2.8125 -4.328125 2.75 -4.078125 C 2.695312 -3.828125 2.671875 -3.554688 2.671875 -3.265625 L 2.671875 -1.25 C 2.671875 -0.945312 2.734375 -0.753906 2.859375 -0.671875 C 2.992188 -0.597656 3.175781 -0.5625 3.40625 -0.5625 L 3.453125 -0.5625 L 3.453125 0 Z "/>
</g>
<g id="glyph-0-10">
<path d="M 2.421875 0.109375 C 1.679688 0.109375 1.148438 0 0.828125 -0.21875 C 0.503906 -0.445312 0.34375 -0.738281 0.34375 -1.09375 C 0.34375 -1.394531 0.4375 -1.597656 0.625 -1.703125 C 0.820312 -1.816406 1.039062 -1.875 1.28125 -1.875 C 1.28125 -0.976562 1.675781 -0.53125 2.46875 -0.53125 C 2.820312 -0.53125 3.078125 -0.601562 3.234375 -0.75 C 3.398438 -0.894531 3.484375 -1.070312 3.484375 -1.28125 C 3.484375 -1.507812 3.382812 -1.6875 3.1875 -1.8125 C 3 -1.945312 2.671875 -2.097656 2.203125 -2.265625 C 1.804688 -2.398438 1.472656 -2.546875 1.203125 -2.703125 C 0.941406 -2.859375 0.742188 -3.046875 0.609375 -3.265625 C 0.484375 -3.492188 0.421875 -3.773438 0.421875 -4.109375 C 0.421875 -4.671875 0.628906 -5.085938 1.046875 -5.359375 C 1.460938 -5.640625 2.007812 -5.78125 2.6875 -5.78125 C 3.320312 -5.78125 3.78125 -5.675781 4.0625 -5.46875 C 4.351562 -5.269531 4.5 -5.039062 4.5 -4.78125 C 4.5 -4.3125 4.171875 -4.078125 3.515625 -4.078125 C 3.515625 -4.421875 3.425781 -4.6875 3.25 -4.875 C 3.070312 -5.070312 2.832031 -5.171875 2.53125 -5.171875 C 2.257812 -5.171875 2.046875 -5.109375 1.890625 -4.984375 C 1.742188 -4.867188 1.671875 -4.710938 1.671875 -4.515625 C 1.671875 -4.273438 1.765625 -4.09375 1.953125 -3.96875 C 2.140625 -3.84375 2.472656 -3.695312 2.953125 -3.53125 C 3.335938 -3.40625 3.660156 -3.265625 3.921875 -3.109375 C 4.179688 -2.960938 4.378906 -2.78125 4.515625 -2.5625 C 4.660156 -2.34375 4.734375 -2.0625 4.734375 -1.71875 C 4.734375 -1.144531 4.53125 -0.695312 4.125 -0.375 C 3.726562 -0.0507812 3.160156 0.109375 2.421875 0.109375 Z "/>
</g>
<g id="glyph-0-11">
<path d="M 0.21875 0 L 0.21875 -0.5625 L 0.25 -0.5625 C 0.488281 -0.5625 0.679688 -0.601562 0.828125 -0.6875 C 0.972656 -0.78125 1.046875 -0.988281 1.046875 -1.3125 L 1.046875 -4.390625 C 1.046875 -4.691406 0.976562 -4.882812 0.84375 -4.96875 C 0.707031 -5.0625 0.523438 -5.109375 0.296875 -5.109375 L 0.265625 -5.109375 L 0.265625 -5.65625 L 2.375 -5.65625 L 2.59375 -4.640625 L 2.640625 -4.640625 C 2.804688 -5.015625 3 -5.296875 3.21875 -5.484375 C 3.445312 -5.679688 3.78125 -5.78125 4.21875 -5.78125 C 4.613281 -5.78125 4.898438 -5.691406 5.078125 -5.515625 C 5.265625 -5.347656 5.359375 -5.128906 5.359375 -4.859375 C 5.359375 -4.535156 5.242188 -4.296875 5.015625 -4.140625 C 4.785156 -3.984375 4.460938 -3.90625 4.046875 -3.90625 C 4.046875 -4.195312 4.007812 -4.414062 3.9375 -4.5625 C 3.875 -4.707031 3.742188 -4.78125 3.546875 -4.78125 C 3.390625 -4.78125 3.253906 -4.71875 3.140625 -4.59375 C 3.035156 -4.476562 2.945312 -4.328125 2.875 -4.140625 C 2.800781 -3.953125 2.742188 -3.742188 2.703125 -3.515625 C 2.671875 -3.296875 2.65625 -3.085938 2.65625 -2.890625 L 2.65625 -1.265625 C 2.65625 -0.953125 2.722656 -0.753906 2.859375 -0.671875 C 3.003906 -0.597656 3.1875 -0.5625 3.40625 -0.5625 L 3.734375 -0.5625 L 3.734375 0 Z "/>
</g>
<g id="glyph-0-12">
<path d="M 0.171875 0 L 0.171875 -0.5625 L 0.3125 -0.5625 C 0.40625 -0.5625 0.507812 -0.578125 0.625 -0.609375 C 0.738281 -0.640625 0.835938 -0.703125 0.921875 -0.796875 C 1.015625 -0.890625 1.0625 -1.039062 1.0625 -1.25 L 1.0625 -6.828125 C 1.0625 -7.015625 1.015625 -7.15625 0.921875 -7.25 C 0.835938 -7.34375 0.738281 -7.398438 0.625 -7.421875 C 0.507812 -7.453125 0.40625 -7.46875 0.3125 -7.46875 L 0.171875 -7.46875 L 0.171875 -8.03125 L 2.65625 -8.03125 L 2.65625 -3.984375 C 2.65625 -3.859375 2.65625 -3.710938 2.65625 -3.546875 C 2.65625 -3.390625 2.648438 -3.242188 2.640625 -3.109375 C 2.628906 -2.972656 2.617188 -2.890625 2.609375 -2.859375 L 3.9375 -4.34375 C 4.0625 -4.476562 4.140625 -4.582031 4.171875 -4.65625 C 4.203125 -4.738281 4.21875 -4.800781 4.21875 -4.84375 C 4.21875 -5.039062 4.035156 -5.140625 3.671875 -5.140625 L 3.671875 -5.65625 L 6.34375 -5.65625 L 6.34375 -5.140625 C 6.101562 -5.140625 5.863281 -5.066406 5.625 -4.921875 C 5.382812 -4.773438 5.125 -4.546875 4.84375 -4.234375 L 4.25 -3.53125 L 5.65625 -1.453125 C 5.84375 -1.160156 6.015625 -0.9375 6.171875 -0.78125 C 6.335938 -0.632812 6.507812 -0.5625 6.6875 -0.5625 L 6.71875 -0.5625 L 6.71875 0 L 6.5625 0 C 6.175781 0 5.851562 -0.0078125 5.59375 -0.03125 C 5.34375 -0.0625 5.125 -0.113281 4.9375 -0.1875 C 4.757812 -0.269531 4.601562 -0.378906 4.46875 -0.515625 C 4.332031 -0.660156 4.191406 -0.851562 4.046875 -1.09375 L 3.15625 -2.5 L 2.65625 -2.109375 L 2.65625 -1.25 C 2.65625 -1.050781 2.695312 -0.898438 2.78125 -0.796875 C 2.875 -0.703125 2.976562 -0.640625 3.09375 -0.609375 C 3.207031 -0.578125 3.3125 -0.5625 3.40625 -0.5625 L 3.53125 -0.5625 L 3.53125 0 Z "/>
</g>
<g id="glyph-0-13">
<path d="M 1.546875 0.078125 C 1.304688 0.078125 1.101562 0.0195312 0.9375 -0.09375 C 0.769531 -0.21875 0.6875 -0.441406 0.6875 -0.765625 C 0.6875 -1.085938 0.769531 -1.304688 0.9375 -1.421875 C 1.101562 -1.546875 1.304688 -1.609375 1.546875 -1.609375 C 1.785156 -1.609375 1.988281 -1.546875 2.15625 -1.421875 C 2.332031 -1.304688 2.421875 -1.085938 2.421875 -0.765625 C 2.421875 -0.441406 2.332031 -0.21875 2.15625 -0.09375 C 1.988281 0.0195312 1.785156 0.078125 1.546875 0.078125 Z "/>
</g>
</g>
</defs>
<g fill="rgb(100%, 100%, 0%)" fill-opacity="1">
<use xlink:href="#glyph-0-0" x="30" y="31.28418"/>
<use xlink:href="#glyph-0-1" x="39" y="31.28418"/>
<use xlink:href="#glyph-0-2" x="45" y="31.28418"/>
<use xlink:href="#glyph-0-3" x="54" y="31.28418"/>
<use xlink:href="#glyph-0-4" x="57" y="31.28418"/>
<use xlink:href="#glyph-0-5" x="65" y="31.28418"/>
<use xlink:href="#glyph-0-6" x="68" y="31.28418"/>
<use xlink:href="#glyph-0-7" x="78" y="31.28418"/>
<use xlink:href="#glyph-0-8" x="84" y="31.28418"/>
<use xlink:href="#glyph-0-9" x="90" y="31.28418"/>
<use xlink:href="#glyph-0-10" x="97" y="31.28418"/>
<use xlink:href="#glyph-0-3" x="102" y="31.28418"/>
<use xlink:href="#glyph-0-2" x="105" y="31.28418"/>
<use xlink:href="#glyph-0-1" x="114" y="31.28418"/>
<use xlink:href="#glyph-0-11" x="120" y="31.28418"/>
<use xlink:href="#glyph-0-12" x="126" y="31.28418"/>
<use xlink:href="#glyph-0-10" x="133" y="31.28418"/>
<use xlink:href="#glyph-0-13" x="138" y="31.28418"/>
</g>
</svg>
